<svg xmlns="http://www.w3.org/2000/svg" width="1220" height="660" viewBox="0 0 1220 660" role="img" aria-label="Librarian / Admin - Use Case Diagram">
<defs><marker id="arrow" viewBox="0 0 10 10" refX="9" refY="5" markerWidth="7" markerHeight="7" orient="auto"><path d="M0,0 L10,5 L0,10 z" fill="#222"/></marker><marker id="open" viewBox="0 0 12 12" refX="11" refY="6" markerWidth="10" markerHeight="10" orient="auto"><path d="M1,1 L11,6 L1,11 z" fill="#fff" stroke="#222"/></marker></defs>
<rect width="100%" height="100%" fill="#f7f7f7"/><g font-family="Arial,Helvetica,sans-serif" stroke="#222" stroke-width="1.4"><text x="610.0" y="30" font-size="22" text-anchor="middle" font-weight="bold" fill="#111" stroke="none">Librarian / Admin - Use Case Diagram</text><rect x="260" y="55" width="930" height="570" fill="#fff"/><text x="280" y="82" font-size="16" text-anchor="start" font-weight="bold" fill="#111" stroke="none">AEC Library Management System</text><circle cx="115" cy="260" r="17" fill="#fff"/><path d="M115,277 V330 M87,298 H143 M115,330 L91,368 M115,330 L139,368" fill="none"/><text x="115" y="390" font-size="16" text-anchor="middle" font-weight="bold" fill="#111" stroke="none">Librarian / Admin</text><ellipse cx="480" cy="130" rx="125" ry="31" fill="#fff"/><text x="480" y="135" font-size="15" text-anchor="middle" font-weight="normal" fill="#111" stroke="none">Secure login</text><path d="M145,295 L355,130" fill="none"/><ellipse cx="480" cy="260" rx="125" ry="31" fill="#fff"/><text x="480" y="265" font-size="15" text-anchor="middle" font-weight="normal" fill="#111" stroke="none">Manage books</text><path d="M145,295 L355,260" fill="none"/><ellipse cx="480" cy="390" rx="125" ry="31" fill="#fff"/><text x="480" y="395" font-size="15" text-anchor="middle" font-weight="normal" fill="#111" stroke="none">Manage students</text><path d="M145,295 L355,390" fill="none"/><ellipse cx="480" cy="520" rx="125" ry="31" fill="#fff"/><text x="480" y="525" font-size="15" text-anchor="middle" font-weight="normal" fill="#111" stroke="none">Approve issue</text><path d="M145,295 L355,520" fill="none"/><ellipse cx="910" cy="130" rx="125" ry="31" fill="#fff"/><text x="910" y="135" font-size="15" text-anchor="middle" font-weight="normal" fill="#111" stroke="none">Process return</text><path d="M145,295 L785,130" fill="none"/><ellipse cx="910" cy="260" rx="125" ry="31" fill="#fff"/><text x="910" y="265" font-size="15" text-anchor="middle" font-weight="normal" fill="#111" stroke="none">Calculate fine</text><path d="M145,295 L785,260" fill="none"/><ellipse cx="910" cy="390" rx="125" ry="31" fill="#fff"/><text x="910" y="395" font-size="15" text-anchor="middle" font-weight="normal" fill="#111" stroke="none">Generate reports</text><path d="M145,295 L785,390" fill="none"/><ellipse cx="910" cy="520" rx="125" ry="31" fill="#fff"/><text x="910" y="525" font-size="15" text-anchor="middle" font-weight="normal" fill="#111" stroke="none">Configure system</text><path d="M145,295 L785,520" fill="none"/></g></svg>