<?xml version="1.0" encoding="UTF-8" standalone="no"?>
<!DOCTYPE svg PUBLIC "-//W3C//DTD SVG 1.1//EN"
 "http://www.w3.org/Graphics/SVG/1.1/DTD/svg11.dtd">
<!-- Generated by graphviz version 15.0.0 (20260523.1842)
 -->
<!-- Title: library_app Pages: 1 -->
<svg width="3025pt" height="314pt"
 viewBox="0.00 0.00 3025.00 314.00" xmlns="http://www.w3.org/2000/svg" xmlns:xlink="http://www.w3.org/1999/xlink">
<g id="graph0" class="graph" transform="scale(1 1) rotate(0) translate(4 309.5)">
<title>library_app</title>
<!-- Author -->
<g id="node1" class="node">
<title>Author</title>
<path fill="none" stroke="black" d="M384.75,-269C384.75,-269 828.5,-269 828.5,-269 834.5,-269 840.5,-275 840.5,-281 840.5,-281 840.5,-293 840.5,-293 840.5,-299 834.5,-305 828.5,-305 828.5,-305 384.75,-305 384.75,-305 378.75,-305 372.75,-299 372.75,-293 372.75,-293 372.75,-281 372.75,-281 372.75,-275 378.75,-269 384.75,-269"/>
<text xml:space="preserve" text-anchor="middle" x="395" y="-283.5" font-family="Arial" font-size="10.00">Author</text>
<polyline fill="none" stroke="black" points="417.25,-269 417.25,-305"/>
<text xml:space="preserve" text-anchor="middle" x="458.62" y="-283.5" font-family="Arial" font-size="10.00">&#45; id : BigInteger</text>
<polyline fill="none" stroke="black" points="500,-269 500,-305"/>
<text xml:space="preserve" text-anchor="middle" x="554.88" y="-283.5" font-family="Arial" font-size="10.00">&#45; name : Varchar(350)</text>
<polyline fill="none" stroke="black" points="609.75,-269 609.75,-305"/>
<text xml:space="preserve" text-anchor="middle" x="676.25" y="-283.5" font-family="Arial" font-size="10.00">&#45; description : Varchar(450)</text>
<polyline fill="none" stroke="black" points="742.75,-269 742.75,-305"/>
<text xml:space="preserve" text-anchor="middle" x="791.62" y="-283.5" font-family="Arial" font-size="10.00">+ __str__() : String</text>
</g>
<!-- Book -->
<g id="node2" class="node">
<title>Book</title>
<path fill="none" stroke="black" d="M261.5,-179.5C261.5,-179.5 951.75,-179.5 951.75,-179.5 957.75,-179.5 963.75,-185.5 963.75,-191.5 963.75,-191.5 963.75,-203.5 963.75,-203.5 963.75,-209.5 957.75,-215.5 951.75,-215.5 951.75,-215.5 261.5,-215.5 261.5,-215.5 255.5,-215.5 249.5,-209.5 249.5,-203.5 249.5,-203.5 249.5,-191.5 249.5,-191.5 249.5,-185.5 255.5,-179.5 261.5,-179.5"/>
<text xml:space="preserve" text-anchor="middle" x="268.75" y="-194" font-family="Arial" font-size="10.00">Book</text>
<polyline fill="none" stroke="black" points="288,-179.5 288,-215.5"/>
<text xml:space="preserve" text-anchor="middle" x="329.38" y="-194" font-family="Arial" font-size="10.00">&#45; id : BigInteger</text>
<polyline fill="none" stroke="black" points="370.75,-179.5 370.75,-215.5"/>
<text xml:space="preserve" text-anchor="middle" x="425.62" y="-194" font-family="Arial" font-size="10.00">&#45; name : Varchar(350)</text>
<polyline fill="none" stroke="black" points="480.5,-179.5 480.5,-215.5"/>
<text xml:space="preserve" text-anchor="middle" x="533.12" y="-194" font-family="Arial" font-size="10.00">&#45; image : ImageField</text>
<polyline fill="none" stroke="black" points="585.75,-179.5 585.75,-215.5"/>
<text xml:space="preserve" text-anchor="middle" x="647.38" y="-194" font-family="Arial" font-size="10.00">&#45; category : Varchar(220)</text>
<polyline fill="none" stroke="black" points="709,-179.5 709,-215.5"/>
<text xml:space="preserve" text-anchor="middle" x="757.88" y="-194" font-family="Arial" font-size="10.00">+ __str__() : String</text>
<polyline fill="none" stroke="black" points="806.75,-179.5 806.75,-215.5"/>
<text xml:space="preserve" text-anchor="middle" x="885.25" y="-194" font-family="Arial" font-size="10.00">+ cloudinary_image_url() : String</text>
</g>
<!-- Author&#45;&gt;Book -->
<g id="edge1" class="edge">
<title>Author&#45;&gt;Book</title>
<path fill="none" stroke="black" d="M606.62,-268.71C606.62,-253.37 606.62,-231.08 606.62,-215.75"/>
<text xml:space="preserve" text-anchor="middle" x="610" y="-237.2" font-family="Times New Roman,serif" font-size="14.00">1</text>
</g>
<!-- Issue -->
<g id="node3" class="node">
<title>Issue</title>
<path fill="none" stroke="black" d="M210.25,-90C210.25,-90 1063,-90 1063,-90 1069,-90 1075,-96 1075,-102 1075,-102 1075,-114 1075,-114 1075,-120 1069,-126 1063,-126 1063,-126 210.25,-126 210.25,-126 204.25,-126 198.25,-120 198.25,-114 198.25,-114 198.25,-102 198.25,-102 198.25,-96 204.25,-90 210.25,-90"/>
<text xml:space="preserve" text-anchor="middle" x="218.25" y="-104.5" font-family="Arial" font-size="10.00">Issue</text>
<polyline fill="none" stroke="black" points="238.25,-90 238.25,-126"/>
<text xml:space="preserve" text-anchor="middle" x="279.62" y="-104.5" font-family="Arial" font-size="10.00">&#45; id : BigInteger</text>
<polyline fill="none" stroke="black" points="321,-90 321,-126"/>
<text xml:space="preserve" text-anchor="middle" x="380.75" y="-104.5" font-family="Arial" font-size="10.00">&#45; created_at : DateTime</text>
<polyline fill="none" stroke="black" points="440.5,-90 440.5,-126"/>
<text xml:space="preserve" text-anchor="middle" x="487.88" y="-104.5" font-family="Arial" font-size="10.00">&#45; issued : Boolean</text>
<polyline fill="none" stroke="black" points="535.25,-90 535.25,-126"/>
<text xml:space="preserve" text-anchor="middle" x="593.12" y="-104.5" font-family="Arial" font-size="10.00">&#45; issued_at : DateTime</text>
<polyline fill="none" stroke="black" points="651,-90 651,-126"/>
<text xml:space="preserve" text-anchor="middle" x="701.75" y="-104.5" font-family="Arial" font-size="10.00">&#45; returned : Boolean</text>
<polyline fill="none" stroke="black" points="752.5,-90 752.5,-126"/>
<text xml:space="preserve" text-anchor="middle" x="813.75" y="-104.5" font-family="Arial" font-size="10.00">&#45; return_date : DateTime</text>
<polyline fill="none" stroke="black" points="875,-90 875,-126"/>
<text xml:space="preserve" text-anchor="middle" x="923.88" y="-104.5" font-family="Arial" font-size="10.00">+ __str__() : String</text>
<polyline fill="none" stroke="black" points="972.75,-90 972.75,-126"/>
<text xml:space="preserve" text-anchor="middle" x="1023.88" y="-104.5" font-family="Arial" font-size="10.00">+ days_no() : String</text>
</g>
<!-- Book&#45;&gt;Issue -->
<g id="edge2" class="edge">
<title>Book&#45;&gt;Issue</title>
<path fill="none" stroke="black" d="M605.25,-179.12C605.02,-168.77 605.8,-155.53 609.88,-144.5 612.28,-137.99 616.3,-131.66 620.51,-126.2"/>
<text xml:space="preserve" text-anchor="middle" x="613.25" y="-147.7" font-family="Times New Roman,serif" font-size="14.00">1</text>
</g>
<!-- Book&#45;&gt;Issue -->
<g id="edge5" class="edge">
<title>Book&#45;&gt;Issue</title>
<path fill="none" stroke="black" stroke-dasharray="5,2" d="M612.55,-179.21C617.81,-163.87 625.45,-141.58 630.71,-126.25"/>
<text xml:space="preserve" text-anchor="middle" x="627.69" y="-147.7" font-family="Times New Roman,serif" font-size="14.00">1</text>
</g>
<!-- Fine -->
<g id="node4" class="node">
<title>Fine</title>
<path fill="none" stroke="black" d="M12,-0.5C12,-0.5 1261.25,-0.5 1261.25,-0.5 1267.25,-0.5 1273.25,-6.5 1273.25,-12.5 1273.25,-12.5 1273.25,-24.5 1273.25,-24.5 1273.25,-30.5 1267.25,-36.5 1261.25,-36.5 1261.25,-36.5 12,-36.5 12,-36.5 6,-36.5 0,-30.5 0,-24.5 0,-24.5 0,-12.5 0,-12.5 0,-6.5 6,-0.5 12,-0.5"/>
<text xml:space="preserve" text-anchor="middle" x="17.38" y="-15" font-family="Arial" font-size="10.00">Fine</text>
<polyline fill="none" stroke="black" points="34.75,-0.5 34.75,-36.5"/>
<text xml:space="preserve" text-anchor="middle" x="76.12" y="-15" font-family="Arial" font-size="10.00">&#45; id : BigInteger</text>
<polyline fill="none" stroke="black" points="117.5,-0.5 117.5,-36.5"/>
<text xml:space="preserve" text-anchor="middle" x="179.5" y="-15" font-family="Arial" font-size="10.00">&#45; amount : Decimal(10,2)</text>
<polyline fill="none" stroke="black" points="241.5,-0.5 241.5,-36.5"/>
<text xml:space="preserve" text-anchor="middle" x="283.62" y="-15" font-family="Arial" font-size="10.00">&#45; paid : Boolean</text>
<polyline fill="none" stroke="black" points="325.75,-0.5 325.75,-36.5"/>
<text xml:space="preserve" text-anchor="middle" x="385.88" y="-15" font-family="Arial" font-size="10.00">&#45; order_id : Varchar(500)</text>
<polyline fill="none" stroke="black" points="446,-0.5 446,-36.5"/>
<text xml:space="preserve" text-anchor="middle" x="529.75" y="-15" font-family="Arial" font-size="10.00">&#45; datetime_of_payment : DateTime</text>
<polyline fill="none" stroke="black" points="613.5,-0.5 613.5,-36.5"/>
<text xml:space="preserve" text-anchor="middle" x="695" y="-15" font-family="Arial" font-size="10.00">&#45; razorpay_order_id : Varchar(500)</text>
<polyline fill="none" stroke="black" points="776.5,-0.5 776.5,-36.5"/>
<text xml:space="preserve" text-anchor="middle" x="865.88" y="-15" font-family="Arial" font-size="10.00">&#45; razorpay_payment_id : Varchar(500)</text>
<polyline fill="none" stroke="black" points="955.25,-0.5 955.25,-36.5"/>
<text xml:space="preserve" text-anchor="middle" x="1039.38" y="-15" font-family="Arial" font-size="10.00">&#45; razorpay_signature : Varchar(500)</text>
<polyline fill="none" stroke="black" points="1123.5,-0.5 1123.5,-36.5"/>
<text xml:space="preserve" text-anchor="middle" x="1149.5" y="-15" font-family="Arial" font-size="10.00">+ save()</text>
<polyline fill="none" stroke="black" points="1175.5,-0.5 1175.5,-36.5"/>
<text xml:space="preserve" text-anchor="middle" x="1224.38" y="-15" font-family="Arial" font-size="10.00">+ __str__() : String</text>
</g>
<!-- Issue&#45;&gt;Fine -->
<g id="edge3" class="edge">
<title>Issue&#45;&gt;Fine</title>
<path fill="none" stroke="black" d="M636.62,-89.71C636.62,-74.37 636.62,-52.08 636.62,-36.75"/>
<text xml:space="preserve" text-anchor="middle" x="640" y="-58.2" font-family="Times New Roman,serif" font-size="14.00">1</text>
</g>
<!-- LibraryStat -->
<g id="node5" class="node">
<title>LibraryStat</title>
<path fill="none" stroke="black" d="M871,-269C871,-269 1258.25,-269 1258.25,-269 1264.25,-269 1270.25,-275 1270.25,-281 1270.25,-281 1270.25,-293 1270.25,-293 1270.25,-299 1264.25,-305 1258.25,-305 1258.25,-305 871,-305 871,-305 865,-305 859,-299 859,-293 859,-293 859,-281 859,-281 859,-275 865,-269 871,-269"/>
<text xml:space="preserve" text-anchor="middle" x="890.62" y="-283.5" font-family="Arial" font-size="10.00">LibraryStat</text>
<polyline fill="none" stroke="black" points="922.25,-269 922.25,-305"/>
<text xml:space="preserve" text-anchor="middle" x="963.62" y="-283.5" font-family="Arial" font-size="10.00">&#45; id : BigInteger</text>
<polyline fill="none" stroke="black" points="1005,-269 1005,-305"/>
<text xml:space="preserve" text-anchor="middle" x="1088.75" y="-283.5" font-family="Arial" font-size="10.00">&#45; borrowed_books : PositiveInteger</text>
<polyline fill="none" stroke="black" points="1172.5,-269 1172.5,-305"/>
<text xml:space="preserve" text-anchor="middle" x="1221.38" y="-283.5" font-family="Arial" font-size="10.00">+ __str__() : String</text>
</g>
<!-- BookRecommendation -->
<g id="node6" class="node">
<title>BookRecommendation</title>
<path fill="none" stroke="black" d="M1299.88,-269C1299.88,-269 3005.38,-269 3005.38,-269 3011.38,-269 3017.38,-275 3017.38,-281 3017.38,-281 3017.38,-293 3017.38,-293 3017.38,-299 3011.38,-305 3005.38,-305 3005.38,-305 1299.88,-305 1299.88,-305 1293.88,-305 1287.88,-299 1287.88,-293 1287.88,-293 1287.88,-281 1287.88,-281 1287.88,-275 1293.88,-269 1299.88,-269"/>
<text xml:space="preserve" text-anchor="middle" x="1345.38" y="-283.5" font-family="Arial" font-size="10.00">BookRecommendation</text>
<polyline fill="none" stroke="black" points="1402.88,-269 1402.88,-305"/>
<text xml:space="preserve" text-anchor="middle" x="1444.25" y="-283.5" font-family="Arial" font-size="10.00">&#45; id : BigInteger</text>
<polyline fill="none" stroke="black" points="1485.62,-269 1485.62,-305"/>
<text xml:space="preserve" text-anchor="middle" x="1538.25" y="-283.5" font-family="Arial" font-size="10.00">&#45; image : ImageField</text>
<polyline fill="none" stroke="black" points="1590.88,-269 1590.88,-305"/>
<text xml:space="preserve" text-anchor="middle" x="1641.62" y="-283.5" font-family="Arial" font-size="10.00">&#45; title : Varchar(350)</text>
<polyline fill="none" stroke="black" points="1692.38,-269 1692.38,-305"/>
<text xml:space="preserve" text-anchor="middle" x="1748.75" y="-283.5" font-family="Arial" font-size="10.00">&#45; author : Varchar(350)</text>
<polyline fill="none" stroke="black" points="1805.12,-269 1805.12,-305"/>
<text xml:space="preserve" text-anchor="middle" x="1862.62" y="-283.5" font-family="Arial" font-size="10.00">&#45; book_type : TextField</text>
<polyline fill="none" stroke="black" points="1920.12,-269 1920.12,-305"/>
<text xml:space="preserve" text-anchor="middle" x="1969.38" y="-283.5" font-family="Arial" font-size="10.00">&#45; isbn : Varchar(50)</text>
<polyline fill="none" stroke="black" points="2018.62,-269 2018.62,-305"/>
<text xml:space="preserve" text-anchor="middle" x="2081" y="-283.5" font-family="Arial" font-size="10.00">&#45; publisher : Varchar(200)</text>
<polyline fill="none" stroke="black" points="2143.38,-269 2143.38,-305"/>
<text xml:space="preserve" text-anchor="middle" x="2209.88" y="-283.5" font-family="Arial" font-size="10.00">&#45; edition_year : Varchar(50)</text>
<polyline fill="none" stroke="black" points="2276.38,-269 2276.38,-305"/>
<text xml:space="preserve" text-anchor="middle" x="2343.62" y="-283.5" font-family="Arial" font-size="10.00">&#45; book_format : Varchar(10)</text>
<polyline fill="none" stroke="black" points="2410.88,-269 2410.88,-305"/>
<text xml:space="preserve" text-anchor="middle" x="2498.75" y="-283.5" font-family="Arial" font-size="10.00">&#45; copies_recommended : Varchar(20)</text>
<polyline fill="none" stroke="black" points="2586.62,-269 2586.62,-305"/>
<text xml:space="preserve" text-anchor="middle" x="2643.75" y="-283.5" font-family="Arial" font-size="10.00">&#45; existing : Varchar(20)</text>
<polyline fill="none" stroke="black" points="2700.88,-269 2700.88,-305"/>
<text xml:space="preserve" text-anchor="middle" x="2750.5" y="-283.5" font-family="Arial" font-size="10.00">&#45; cost : Varchar(50)</text>
<polyline fill="none" stroke="black" points="2800.12,-269 2800.12,-305"/>
<text xml:space="preserve" text-anchor="middle" x="2859.88" y="-283.5" font-family="Arial" font-size="10.00">&#45; created_at : DateTime</text>
<polyline fill="none" stroke="black" points="2919.62,-269 2919.62,-305"/>
<text xml:space="preserve" text-anchor="middle" x="2968.5" y="-283.5" font-family="Arial" font-size="10.00">+ __str__() : String</text>
</g>
<!-- Student -->
<g id="node7" class="node">
<title>Student</title>
<path fill="none" stroke="black" d="M993.62,-179.5C993.62,-179.5 1023.62,-179.5 1023.62,-179.5 1029.62,-179.5 1035.62,-185.5 1035.62,-191.5 1035.62,-191.5 1035.62,-203.5 1035.62,-203.5 1035.62,-209.5 1029.62,-215.5 1023.62,-215.5 1023.62,-215.5 993.62,-215.5 993.62,-215.5 987.62,-215.5 981.62,-209.5 981.62,-203.5 981.62,-203.5 981.62,-191.5 981.62,-191.5 981.62,-185.5 987.62,-179.5 993.62,-179.5"/>
<text xml:space="preserve" text-anchor="middle" x="1008.5" y="-194" font-family="Arial" font-size="10.00">Student</text>
</g>
<!-- Student&#45;&gt;Issue -->
<g id="edge4" class="edge">
<title>Student&#45;&gt;Issue</title>
<path fill="none" stroke="black" stroke-dasharray="5,2" d="M981.4,-182.41C978.48,-181.15 975.52,-179.99 972.62,-179 902.42,-155.04 821.03,-137.82 755.94,-126.47"/>
<text xml:space="preserve" text-anchor="middle" x="913.24" y="-147.7" font-family="Times New Roman,serif" font-size="14.00">1</text>
</g>
</g>
</svg>
