<svg xmlns="http://www.w3.org/2000/svg" width="1260" height="390" viewBox="0 0 1260 390" role="img" aria-label="Student App - Complete Class Diagram">
<defs><marker id="arrow" viewBox="0 0 10 10" refX="9" refY="5" markerWidth="7" markerHeight="7" orient="auto"><path d="M0,0 L10,5 L0,10 z" fill="#222"/></marker><marker id="open" viewBox="0 0 12 12" refX="11" refY="6" markerWidth="10" markerHeight="10" orient="auto"><path d="M1,1 L11,6 L1,11 z" fill="#fff" stroke="#222"/></marker></defs>
<rect width="100%" height="100%" fill="#f7f7f7"/><g font-family="Arial,Helvetica,sans-serif" stroke="#222" stroke-width="1.4"><text x="630.0" y="30" font-size="19" text-anchor="middle" font-weight="bold" fill="#111" stroke="none">Student App - Complete Class Diagram</text><rect x="45" y="95" width="300" height="144" fill="#fff"/><line x1="45" y1="129" x2="345" y2="129"/><line x1="45" y1="211" x2="345" y2="211"/><text x="195.0" y="117" font-size="15" text-anchor="middle" font-weight="bold" fill="#111" stroke="none">auth.User</text><text x="54" y="147" font-size="12" text-anchor="start" font-weight="normal" fill="#111" stroke="none">- id : BigInteger</text><text x="54" y="165" font-size="12" text-anchor="start" font-weight="normal" fill="#111" stroke="none">- username : String</text><text x="54" y="183" font-size="12" text-anchor="start" font-weight="normal" fill="#111" stroke="none">- email : Email</text><text x="54" y="201" font-size="12" text-anchor="start" font-weight="normal" fill="#111" stroke="none">- password : String</text><text x="54" y="229" font-size="12" text-anchor="start" font-weight="normal" fill="#111" stroke="none">+ get_full_name() : String</text><rect x="465" y="75" width="340" height="162" fill="#fff"/><line x1="465" y1="109" x2="805" y2="109"/><line x1="465" y1="209" x2="805" y2="209"/><text x="635.0" y="97" font-size="15" text-anchor="middle" font-weight="bold" fill="#111" stroke="none">Student</text><text x="474" y="127" font-size="12" text-anchor="start" font-weight="normal" fill="#111" stroke="none">- id : BigInteger</text><text x="474" y="145" font-size="12" text-anchor="start" font-weight="normal" fill="#111" stroke="none">- student_id : User [OneToOne]</text><text x="474" y="163" font-size="12" text-anchor="start" font-weight="normal" fill="#111" stroke="none">- department : Department [FK]</text><text x="474" y="181" font-size="12" text-anchor="start" font-weight="normal" fill="#111" stroke="none">- first_name : String</text><text x="474" y="199" font-size="12" text-anchor="start" font-weight="normal" fill="#111" stroke="none">- last_name : String</text><text x="474" y="227" font-size="12" text-anchor="start" font-weight="normal" fill="#111" stroke="none">+ __str__() : String</text><rect x="925" y="105" width="285" height="108" fill="#fff"/><line x1="925" y1="139" x2="1210" y2="139"/><line x1="925" y1="185" x2="1210" y2="185"/><text x="1067.5" y="127" font-size="15" text-anchor="middle" font-weight="bold" fill="#111" stroke="none">Department</text><text x="934" y="157" font-size="12" text-anchor="start" font-weight="normal" fill="#111" stroke="none">- id : BigInteger</text><text x="934" y="175" font-size="12" text-anchor="start" font-weight="normal" fill="#111" stroke="none">- name : String</text><text x="934" y="203" font-size="12" text-anchor="start" font-weight="normal" fill="#111" stroke="none">+ __str__() : String</text><path d="M345,175 L465,175" fill="none" marker-end="url(#open)"/><rect x="341.0" y="140" width="128" height="20" rx="3" fill="#f7f7f7" stroke="none"/><text x="405.0" y="155" font-size="12" text-anchor="middle" font-weight="bold" fill="#111" stroke="none">account / profile</text><text x="353" y="167" font-size="12" text-anchor="start" font-weight="bold" fill="#111" stroke="none">1</text><text x="457" y="167" font-size="12" text-anchor="end" font-weight="bold" fill="#111" stroke="none">1</text><path d="M805,175 L925,175" fill="none" marker-end="url(#open)"/><rect x="801.0" y="140" width="128" height="20" rx="3" fill="#f7f7f7" stroke="none"/><text x="865.0" y="155" font-size="12" text-anchor="middle" font-weight="bold" fill="#111" stroke="none">members / department</text><text x="813" y="167" font-size="12" text-anchor="start" font-weight="bold" fill="#111" stroke="none">0..*</text><text x="917" y="167" font-size="12" text-anchor="end" font-weight="bold" fill="#111" stroke="none">1</text><text x="630" y="335" font-size="13" text-anchor="middle" font-weight="bold" fill="#111" stroke="none">Student.student_id is OneToOneField(User); Student.department is ForeignKey(Department).</text></g></svg>