<svg width="16" height="16" viewBox="0 0 16 16" fill="none" xmlns="http://www.w3.org/2000/svg">
<path d="M9.40004 14.4667C9.33337 14.4667 9.27226 14.4556 9.21671 14.4333C9.16115 14.4111 9.1056 14.3722 9.05004 14.3167L7.03337 12.3C6.91115 12.1778 6.85004 12.0222 6.85004 11.8333C6.85004 11.6444 6.91115 11.4889 7.03337 11.3667C7.1556 11.2444 7.31115 11.1833 7.50004 11.1833C7.68893 11.1833 7.84449 11.2444 7.96671 11.3667L9.40004 12.8L12.7 9.5C12.8223 9.37778 12.9778 9.31667 13.1667 9.31667C13.3556 9.31667 13.5112 9.37778 13.6334 9.5C13.7556 9.62222 13.8167 9.77778 13.8167 9.96667C13.8167 10.1556 13.7556 10.3111 13.6334 10.4333L9.75004 14.3167C9.69449 14.3722 9.63893 14.4111 9.58337 14.4333C9.52782 14.4556 9.46671 14.4667 9.40004 14.4667ZM2.93337 10.6667C2.67782 10.6667 2.49171 10.5833 2.37504 10.4167C2.25837 10.25 2.24449 10.0444 2.33337 9.8L4.96671 2.73333C5.04449 2.53333 5.18337 2.36111 5.38337 2.21667C5.58337 2.07222 5.79449 2 6.01671 2C6.23893 2 6.45004 2.07222 6.65004 2.21667C6.85004 2.36111 6.98893 2.53333 7.06671 2.73333L9.70004 9.75C9.78893 10.0056 9.77226 10.2222 9.65004 10.4C9.52782 10.5778 9.32782 10.6667 9.05004 10.6667C8.89449 10.6667 8.74726 10.6167 8.60838 10.5167C8.46949 10.4167 8.37226 10.2944 8.31671 10.15L7.73338 8.46667H4.23337L3.63337 10.1833C3.57782 10.3167 3.48615 10.4306 3.35837 10.525C3.2306 10.6194 3.08893 10.6667 2.93337 10.6667ZM4.70004 7.2H7.30004L6.03337 3.6H5.96671L4.70004 7.2Z" fill="#E34935"/>
</svg>
